<?xml version="1.0" encoding="utf-8"?>
<!-- Generator: Adobe Illustrator 28.1.0, SVG Export Plug-In . SVG Version: 6.00 Build 0)  -->
<svg version="1.1" id="Camada_1" xmlns="http://www.w3.org/2000/svg" xmlns:xlink="http://www.w3.org/1999/xlink" x="0px" y="0px"
	 viewBox="0 0 1920 1080" style="enable-background:new 0 0 1920 1080;" xml:space="preserve">
<style type="text/css">
	.st0{fill:none;}
	.st1{fill:#FFC01C;}
	.st2{fill:#17B9EB;}
	.st3{fill:#00922C;}
	.st4{fill:#FF00C6;}
	.st5{fill:#FC0000;}
	.st6{fill:#002254;}
	.st7{fill:#0B1C45;}
	.st8{display:none;fill:#0B1C45;}
	.st9{font-family:'Poppins-BoldItalic';}
	.st10{font-size:71.2634px;}
</style>
<g>
	<path class="st0" d="M597.17,548.6c7.95-6.53,11.92-16.16,11.92-28.87c0-12.71-3.97-22.42-11.92-29.14
		c-7.95-6.7-19.34-10.07-34.17-10.07h-59.33v77.88H563C577.83,558.4,589.22,555.14,597.17,548.6z"/>
	<path class="st0" d="M605.12,635.75c-8.66-7.42-20.58-11.12-35.76-11.12h-65.69v82.11h66.75c15.18,0,26.93-3.44,35.23-10.33
		c8.29-6.89,12.45-16.86,12.45-29.93C618.1,653.41,613.77,643.17,605.12,635.75z"/>
	<path class="st0" d="M676.17,606.86l-8.2-32.33c-8.6,6.39-18.51,11.27-29.74,14.59C652.82,592.24,665.46,598.16,676.17,606.86z"/>
	<path class="st0" d="M1161.91,668.38c1.41,13.77,6.18,24.29,14.3,31.52c8.12,7.24,18.72,10.86,31.79,10.86
		c13.42,0,24.01-3.09,31.79-9.27c7.76-6.18,11.65-14.74,11.65-25.69c0-9.18-3.1-16.77-9.27-22.78c-6.18-6-13.77-10.94-22.78-14.83
		c-9.01-3.88-21.81-8.29-38.41-13.24c-24.02-7.42-43.62-14.83-58.8-22.25c-4.83-2.36-9.44-5.08-13.84-8.15l-19.25,73.84H1161.91z"/>
	<path class="st1" d="M1089.09,668.38l19.25-73.84c-9.44-6.59-17.9-14.82-25.36-24.7c-10.95-14.48-16.42-33.38-16.42-56.68
		c0-34.61,12.53-61.72,37.61-81.32c14.45-11.3,31.44-19.32,50.93-24.1h-95.54l-54.04,270.71l-63.57-270.71h-99.6l-66.22,270.71
		l-53.51-270.71h-96.95l1.43,5.65c16.45,4.29,30.5,11.12,42.11,20.52c21.36,17.31,32.05,40.79,32.05,70.46
		c0,21.9-5.74,40.09-17.22,54.57c-4.72,5.95-10.08,11.14-16.08,15.6l8.2,32.33c5.1,4.14,9.76,8.91,13.98,14.32
		c13.06,16.78,19.6,35.94,19.6,57.48c0,13.42-2.03,25.63-6.08,36.64l16.31,64.33h109.66l61.45-244.75l59.33,244.75h109.66
		l16.61-63.72c-6.95-13.98-10.69-29.82-11.21-47.53H1089.09z"/>
	<path class="st2" d="M638.23,589.13c11.24-3.33,21.14-8.2,29.74-14.59l-40.86-161.14c-13.84-3.61-29.37-5.44-46.63-5.44H413.08
		v371.89h173.23c38.85,0,69.13-9.09,90.85-27.28c12.34-10.34,21.17-22.76,26.5-37.26l-27.5-108.44
		C665.46,598.16,652.82,592.24,638.23,589.13z M503.67,480.53H563c14.83,0,26.22,3.36,34.17,10.07
		c7.95,6.71,11.92,16.42,11.92,29.14c0,12.71-3.97,22.34-11.92,28.87c-7.95,6.54-19.34,9.8-34.17,9.8h-59.33V480.53z M605.65,696.41
		c-8.3,6.89-20.05,10.33-35.23,10.33h-66.75v-82.11h65.69c15.18,0,27.1,3.71,35.76,11.12c8.65,7.42,12.98,17.66,12.98,30.73
		C618.1,679.55,613.94,689.52,605.65,696.41z"/>
	<path class="st3" d="M690.14,621.18c-4.22-5.41-8.88-10.18-13.98-14.32l27.5,108.44c4.05-11.01,6.08-23.22,6.08-36.64
		C709.75,657.12,703.21,637.96,690.14,621.18z"/>
	<path class="st3" d="M684.05,558.93c11.47-14.48,17.22-32.66,17.22-54.57c0-29.67-10.69-53.15-32.05-70.46
		c-11.61-9.4-25.66-16.22-42.11-20.52l40.86,161.14C673.97,570.08,679.34,564.88,684.05,558.93z"/>
	<path class="st4" d="M1329.84,614.35c-10.95-14.12-23.93-24.9-38.94-32.32c-15.02-7.42-34.53-15.18-58.54-23.31
		c-24.02-7.77-41.68-15.01-52.98-21.72c-11.31-6.7-16.95-16.07-16.95-28.08c0-10.94,3.35-19.34,10.07-25.16
		c6.71-5.83,15.54-8.74,26.49-8.74c12.71,0,23.13,3.44,31.26,10.33c8.12,6.89,12.53,16.34,13.24,28.34h98.01
		c-1.77-34.96-15.19-62.25-40.26-81.85c-25.08-19.6-58.1-29.4-99.07-29.4c-17.06,0-32.74,1.78-47.07,5.3h1.93l-48.7,186.81
		c4.4,3.07,9.01,5.79,13.84,8.15c15.18,7.42,34.78,14.83,58.8,22.25c16.6,4.95,29.4,9.36,38.41,13.24
		c9.01,3.89,16.6,8.83,22.78,14.83c6.18,6.01,9.27,13.6,9.27,22.78c0,10.95-3.89,19.52-11.65,25.69
		c-7.77,6.18-18.37,9.27-31.79,9.27c-13.07,0-23.67-3.62-31.79-10.86c-8.13-7.24-12.9-17.75-14.3-31.52h-72.82l-12.39,47.53
		c2.61,5.26,5.67,10.26,9.19,14.99c12.89,17.31,30.1,30.38,51.65,39.2c21.54,8.83,45.91,13.24,73.11,13.24
		c27.89,0,52.09-5.12,72.58-15.36c20.48-10.24,36.11-24.01,46.89-41.32c10.77-17.3,16.16-36.55,16.16-57.75
		C1346.27,646.66,1340.79,628.48,1329.84,614.35z"/>
	<path class="st5" d="M1066.55,513.16c0,23.31,5.47,42.21,16.42,56.68c7.46,9.88,15.92,18.11,25.36,24.7l48.7-186.81h-1.93
		c-19.5,4.79-36.48,12.81-50.93,24.1C1079.08,451.44,1066.55,478.55,1066.55,513.16z"/>
	<path class="st5" d="M1065.49,668.38c0.51,17.71,4.26,33.55,11.21,47.53l12.39-47.53H1065.49z"/>
	<g>
		<path class="st1" d="M1410.88,316.33c0.55-9.88,0.97-19.76,0.06-29.66c0-6.33,0.09-12.66-0.02-18.98
			c-0.21-12.82-10.25-23.64-23.09-24.08c-27.86-0.94-55.74-0.73-83.6-0.09c-11.25,0.26-21.42,10.48-21.71,21.34
			c-0.42,15.69-0.63,31.4-0.67,47.1c-0.02,6.72,2.49,12.59,7.67,17.14c4.44,3.9,9.8,5.64,15.52,6.21c3.16,0.31,3.98,1.82,3.68,4.69
			c-0.52,5.06-2.5,9.66-4.41,14.25c-1.87,4.49-4.12,8.82-6.2,13.23c-0.8,1.71-1.51,3.49-0.17,5.2c1.26,1.6,3.18,1.29,4.8,0.99
			c2.44-0.45,4.89-1.11,7.19-2.05c14.55-5.94,23.04-17.52,28.72-31.5c1.14-2.79,2.49-3.64,5.44-3.66
			c15.32-0.07,30.64-0.32,45.96-0.64C1400.88,335.6,1410.3,326.68,1410.88,316.33z M1342.69,313.78c-11.59-0.05-23.18-0.05-34.77,0
			c-2.26,0.01-3.43-0.7-3.37-3.18c0.06-2.42,1.45-2.77,3.37-2.76c5.93,0.03,11.85,0.01,17.78,0.01c5.66,0,11.33,0.03,16.99-0.02
			c1.97-0.01,3.32,0.42,3.39,2.77C1346.15,313.05,1344.96,313.79,1342.69,313.78z M1383.81,292.85
			c-12.53-0.02-25.05-0.01-37.58-0.01c-12.26,0-24.52-0.02-36.79,0.01c-2.38,0.01-4.67,0.04-4.61-3.29c0.06-3.2,2.37-2.91,4.51-2.91
			c24.79,0,49.57,0.01,74.36,0c2.16,0,4.33-0.23,4.35,3.03C1388.09,292.87,1386.05,292.86,1383.81,292.85z M1384.16,272.93
			c-24.94-0.01-49.87-0.01-74.81,0.01c-2.28,0-4.38-0.13-4.41-3.14c-0.03-3.11,2.14-3.05,4.39-3.04c12.4,0.03,24.8,0.02,37.2,0.02
			c12.53,0.01,25.07,0.05,37.6-0.02c2.41-0.01,4.28,0.27,4.19,3.25C1388.24,272.83,1386.29,272.93,1384.16,272.93z"/>
		<path class="st4" d="M1467.88,312.42c-0.62-8.48-6.96-16.29-14.37-17.48c-8.99-1.44-18.15-1.67-27.21-0.12
			c-2.52,0.43-5.01,1.52-4.45,4.91c0.49,2.97,2.76,3.54,5.32,3.55c5.68,0.03,11.36,0.02,17.03,0.11c9.3,0.14,14.11,4.97,14.15,14.24
			c0.05,10.68,0.02,21.37,0.02,32.05c-0.01,15.71-0.72,16.7-15.7,21.8c-6.12,2.08-8.24,5.26-8.19,11.83
			c0.03,4.05,1.39,7.74,2.72,11.44c0.4,1.12,1.25,2.38,0.08,3.24c-1.11,0.81-2.34-0.23-3.22-0.88c-1.58-1.16-3-2.56-4.42-3.94
			c-3.9-3.79-5.3-9.01-7.71-13.66c-2.35-4.53-5.37-8.16-11.09-8.08c-13.44-0.03-26.88-0.06-40.33-0.08
			c-6.28-2.46-10.58-6.66-12.2-13.4c-1-4.17-3.14-5.69-6.62-4.84c-3.94,0.97-3.56,4.16-3.1,7.02c1.72,10.72,13.41,20.64,24.34,20.71
			c11.22,0.06,22.45,0.17,33.67-0.05c3.6-0.07,5.79,0.9,7.47,4.2c2.38,4.68,5.15,9.21,8.52,13.27c3.73,4.49,7.64,8.8,13.87,9.79
			c7.16,1.14,11.56-2.86,10.99-9.98c-0.26-3.24-1.75-6-3.21-8.82c-2.72-5.25-0.14-10.57,5.43-11.44c9.93-1.57,17.22-8.52,18.2-18.36
			C1469.42,343.8,1469.04,328.08,1467.88,312.42z"/>
		<path class="st6" d="M1446.38,275.02c2.12,0.08,1.57-1.67,1.58-2.87c0.05-3.81,0.02-7.63,0.02-11.45
			c1.99,3.31,2.9,6.81,4.21,10.16c0.59,1.51-0.02,4.15,2.68,4.21c2.74,0.06,2.12-2.59,2.78-4.09c1.45-3.29,1.75-7.05,3.86-10.14
			c0.34,3.9,0.32,7.71,0.36,11.52c0.01,1.09-0.47,2.64,1.39,2.66c1.77,0.02,1.53-1.44,1.54-2.6c0.01-4.61,0.03-9.22-0.01-13.83
			c-0.01-1.49,0.52-3.3-1.89-3.62c-2.36-0.32-3.2,0.95-3.77,3c-1.14,4.11-2.51,8.16-4.16,13.4c-1.74-5.52-3.17-9.83-4.44-14.18
			c-0.56-1.92-1.76-2.38-3.55-2.23c-2.1,0.17-2.04,1.61-2.04,3.11c0.02,4.74-0.01,9.48,0.01,14.22
			C1444.96,273.45,1444.65,274.96,1446.38,275.02z"/>
		<path class="st6" d="M1428.35,257.86c4.19-0.76,4.91,1.46,4.46,4.9c-0.15,1.16-0.02,2.36-0.02,3.54c0,1.44-0.23,2.94,0.06,4.32
			c0.33,1.52-1.53,4.36,1.5,4.33c2.61-0.02,1.16-2.68,1.3-4.13c0.24-2.47,0.2-4.99,0.03-7.47c-0.23-3.45-0.27-6.48,4.67-5.49
			c0.93,0.19,2.04-0.13,2.1-1.24c0.07-1.29-0.98-1.64-2.15-1.64c-3.94,0.01-7.88,0.03-11.82-0.01c-1.15-0.01-2.29,0.22-2.38,1.41
			C1426,257.76,1427.28,258.05,1428.35,257.86z"/>
	</g>
</g>
<g>
	<path class="st7" d="M1401.73,563.44l-8.84,50.03h-12.19l8.84-50.03H1401.73z"/>
	<path class="st7" d="M1410.78,611.97c-2.66-1.38-4.71-3.33-6.16-5.84c-1.45-2.52-2.17-5.44-2.17-8.77c0-4.51,1.07-8.62,3.21-12.33
		c2.14-3.71,5.08-6.62,8.84-8.73c3.75-2.11,7.93-3.17,12.54-3.17c3.42,0,6.47,0.7,9.16,2.1c2.68,1.4,4.76,3.36,6.24,5.88
		c1.47,2.52,2.21,5.44,2.21,8.77c0,4.56-1.08,8.68-3.24,12.36c-2.16,3.68-5.13,6.57-8.91,8.66c-3.78,2.09-7.97,3.14-12.58,3.14
		C1416.48,614.04,1413.44,613.35,1410.78,611.97z M1426.99,601.74c1.59-1.21,2.83-2.78,3.71-4.7c0.88-1.92,1.32-3.93,1.32-6.02
		c0-2.38-0.64-4.21-1.92-5.49c-1.28-1.28-2.9-1.92-4.85-1.92c-2.04,0-3.84,0.61-5.38,1.82c-1.54,1.21-2.74,2.79-3.6,4.74
		c-0.85,1.95-1.28,3.99-1.28,6.13c0,2.33,0.62,4.12,1.85,5.38c1.24,1.26,2.83,1.89,4.77,1.89
		C1423.6,603.56,1425.4,602.96,1426.99,601.74z"/>
	<path class="st7" d="M1491.95,563.44l-1.64,9.62h-13.33l-7.13,40.41h-12.19l7.13-40.41h-13.25l1.71-9.62H1491.95z"/>
</g>
<text transform="matrix(1 0 0 1 1379.9199 613.4668)" class="st8 st9 st10">IoT</text>
</svg>
